<svg width="165" height="32" viewBox="0 0 165 32" fill="none" xmlns="http://www.w3.org/2000/svg">
<path d="M37.0234 26.3672C36.7109 26.3672 36.3711 26.3398 36.0039 26.2852C35.6445 26.2383 35.2812 26.1328 34.9141 25.9688C34.5547 25.8047 34.207 25.5742 33.8711 25.2773C33.543 24.9727 33.25 24.5742 32.9922 24.082C32.7422 23.5898 32.5391 22.9844 32.3828 22.2656C32.2344 21.5391 32.1602 20.6758 32.1602 19.6758V12.5859C32.1602 11.5781 32.2383 10.7188 32.3945 10.0078C32.5508 9.28906 32.7578 8.6875 33.0156 8.20312C33.2734 7.71094 33.5703 7.32031 33.9062 7.03125C34.2422 6.74219 34.5898 6.52344 34.9492 6.375C35.3086 6.21875 35.6641 6.11719 36.0156 6.07031C36.375 6.02344 36.707 6 37.0117 6C37.8086 6 38.4727 6.11328 39.0039 6.33984C39.543 6.55859 39.9727 6.86328 40.293 7.25391C40.6211 7.63672 40.8516 8.08594 40.9844 8.60156C41.125 9.11719 41.1953 9.66406 41.1953 10.2422C41.1953 10.6719 41.1719 11.0703 41.125 11.4375C41.0859 11.7969 41.0234 12.1953 40.9375 12.6328H38.4766V11.6133C38.4766 10.5117 38.3555 9.6875 38.1133 9.14062C37.8711 8.59375 37.5156 8.32031 37.0469 8.32031C36.7656 8.32031 36.5195 8.375 36.3086 8.48438C36.0977 8.59375 35.9219 8.78125 35.7812 9.04688C35.6406 9.30469 35.5312 9.64844 35.4531 10.0781C35.3828 10.5078 35.3477 11.043 35.3477 11.6836V20.8242C35.3477 21.4492 35.375 21.9688 35.4297 22.3828C35.4922 22.7969 35.5898 23.1289 35.7227 23.3789C35.8555 23.6289 36.0273 23.8086 36.2383 23.918C36.457 24.0195 36.7188 24.0703 37.0234 24.0703C37.2188 24.0703 37.4062 24.0273 37.5859 23.9414C37.7656 23.8477 37.9219 23.707 38.0547 23.5195C38.1953 23.3242 38.3047 23.082 38.3828 22.793C38.4688 22.4961 38.5117 22.1484 38.5117 21.75V19.793H41.2891V21.6445C41.2891 23.2539 40.9219 24.4414 40.1875 25.207C39.4531 25.9727 38.3984 26.3594 37.0234 26.3672Z" fill="#292C39"/>
<path d="M47.5197 6.17578H50.8127C51.1877 6.17578 51.5978 6.19141 52.0431 6.22266C52.4963 6.25391 52.9455 6.33203 53.3908 6.45703C53.8439 6.57422 54.2775 6.75391 54.6916 6.99609C55.1134 7.23828 55.4845 7.57031 55.8048 7.99219C56.133 8.41406 56.3947 8.94531 56.59 9.58594C56.7853 10.2188 56.883 10.9883 56.883 11.8945V12.3984C56.883 13.9219 56.6642 15.1641 56.2267 16.125C55.7892 17.0781 55.1447 17.7656 54.2931 18.1875L57.5041 26.1914H54.2931L51.633 18.7031H50.4963V26.1914H47.5197V6.17578ZM50.9533 16.5117C51.4845 16.5117 51.9338 16.4531 52.3009 16.3359C52.6681 16.2188 52.965 16.0234 53.1916 15.75C53.4181 15.4688 53.5822 15.1016 53.6838 14.6484C53.7853 14.1875 53.8361 13.6211 53.8361 12.9492V11.3672C53.8361 10.8516 53.7892 10.4062 53.6955 10.0312C53.6017 9.65625 53.4416 9.34766 53.215 9.10547C52.9963 8.86328 52.7033 8.68359 52.3361 8.56641C51.9689 8.44922 51.508 8.39062 50.9533 8.39062H50.4963V16.5117H50.9533Z" fill="#292C39"/>
<path d="M63.6409 6.17578H71.0589V8.56641H66.6761V14.5547H70.0628V16.9453H66.6761V23.8008H71.1761V26.1914H63.6409V6.17578Z" fill="#292C39"/>
<path d="M76.4341 22.1367C76.4341 21.707 76.4575 21.3125 76.5044 20.9531C76.5591 20.5859 76.6372 20.1914 76.7388 19.7695H79.0942V20.7422C79.0942 21.2812 79.1255 21.7578 79.188 22.1719C79.2583 22.5859 79.3677 22.9375 79.5161 23.2266C79.6723 23.5078 79.8755 23.7227 80.1255 23.8711C80.3833 24.0117 80.6958 24.082 81.063 24.082C81.6411 24.082 82.0825 23.9258 82.3872 23.6133C82.6919 23.293 82.8442 22.8281 82.8442 22.2188C82.8442 21.9062 82.8208 21.6211 82.7739 21.3633C82.7348 21.0977 82.6606 20.8359 82.5513 20.5781C82.4497 20.3203 82.3091 20.0508 82.1294 19.7695C81.9497 19.4805 81.7192 19.1602 81.438 18.8086L78.2739 15.0469C77.7114 14.3281 77.2778 13.6055 76.9731 12.8789C76.6684 12.1445 76.5161 11.3633 76.5161 10.5352C76.5161 9.87109 76.6177 9.26172 76.8208 8.70703C77.0317 8.15234 77.3325 7.67578 77.7231 7.27734C78.1138 6.87109 78.5942 6.55859 79.1645 6.33984C79.7427 6.11328 80.395 6 81.1216 6C82.0044 6 82.7388 6.125 83.3247 6.375C83.9184 6.625 84.3911 6.95312 84.7427 7.35938C85.0942 7.76562 85.3403 8.22266 85.4809 8.73047C85.6294 9.23047 85.7036 9.73438 85.7036 10.2422C85.7036 10.6719 85.6684 11.0703 85.5981 11.4375C85.5356 11.7969 85.4614 12.1953 85.3755 12.6328H83.0317V11.6836C83.0317 10.6211 82.8794 9.80859 82.5747 9.24609C82.27 8.67578 81.7739 8.39062 81.0864 8.39062C80.5161 8.39062 80.0903 8.55078 79.8091 8.87109C79.5278 9.18359 79.3872 9.60547 79.3872 10.1367C79.3872 10.418 79.4067 10.6719 79.4458 10.8984C79.4927 11.125 79.5552 11.3359 79.6333 11.5312C79.7192 11.7188 79.8208 11.9023 79.938 12.082C80.0552 12.2617 80.188 12.4492 80.3364 12.6445L83.8638 16.9102C84.5044 17.7461 84.9966 18.5508 85.3403 19.3242C85.6841 20.0898 85.8559 20.9023 85.8559 21.7617C85.8559 22.4727 85.7427 23.1133 85.5161 23.6836C85.2973 24.2539 84.9809 24.7383 84.5669 25.1367C84.1528 25.5352 83.6528 25.8438 83.0669 26.0625C82.4809 26.2734 81.8208 26.3789 81.0864 26.3789C80.1802 26.3789 79.4263 26.2578 78.8247 26.0156C78.2309 25.7734 77.7544 25.4531 77.395 25.0547C77.0434 24.6562 76.7934 24.2031 76.645 23.6953C76.5044 23.1875 76.4341 22.668 76.4341 22.1367Z" fill="#292C39"/>
<path d="M96.5631 26.3672C96.2506 26.3672 95.9108 26.3398 95.5436 26.2852C95.1842 26.2383 94.8209 26.1328 94.4538 25.9688C94.0944 25.8047 93.7467 25.5742 93.4108 25.2773C93.0827 24.9727 92.7897 24.5742 92.5319 24.082C92.2819 23.5898 92.0788 22.9844 91.9225 22.2656C91.7741 21.5391 91.6998 20.6758 91.6998 19.6758V12.5859C91.6998 11.5781 91.778 10.7188 91.9342 10.0078C92.0905 9.28906 92.2975 8.6875 92.5553 8.20312C92.8131 7.71094 93.11 7.32031 93.4459 7.03125C93.7819 6.74219 94.1295 6.52344 94.4889 6.375C94.8483 6.21875 95.2038 6.11719 95.5553 6.07031C95.9147 6.02344 96.2467 6 96.5514 6C97.3483 6 98.0123 6.11328 98.5436 6.33984C99.0827 6.55859 99.5123 6.86328 99.8327 7.25391C100.161 7.63672 100.391 8.08594 100.524 8.60156C100.665 9.11719 100.735 9.66406 100.735 10.2422C100.735 10.6719 100.712 11.0703 100.665 11.4375C100.626 11.7969 100.563 12.1953 100.477 12.6328H98.0163V11.6133C98.0163 10.5117 97.8952 9.6875 97.653 9.14062C97.4108 8.59375 97.0553 8.32031 96.5866 8.32031C96.3053 8.32031 96.0592 8.375 95.8483 8.48438C95.6373 8.59375 95.4616 8.78125 95.3209 9.04688C95.1803 9.30469 95.0709 9.64844 94.9928 10.0781C94.9225 10.5078 94.8873 11.043 94.8873 11.6836V20.8242C94.8873 21.4492 94.9147 21.9688 94.9694 22.3828C95.0319 22.7969 95.1295 23.1289 95.2623 23.3789C95.3952 23.6289 95.567 23.8086 95.778 23.918C95.9967 24.0195 96.2584 24.0703 96.5631 24.0703C96.7584 24.0703 96.9459 24.0273 97.1256 23.9414C97.3053 23.8477 97.4616 23.707 97.5944 23.5195C97.735 23.3242 97.8444 23.082 97.9225 22.793C98.0084 22.4961 98.0514 22.1484 98.0514 21.75V19.793H100.829V21.6445C100.829 23.2539 100.462 24.4414 99.7272 25.207C98.9928 25.9727 97.9381 26.3594 96.5631 26.3672Z" fill="#292C39"/>
<path d="M107.059 6.17578H114.477V8.56641H110.095V14.5547H113.481V16.9453H110.095V23.8008H114.595V26.1914H107.059V6.17578Z" fill="#292C39"/>
<path d="M120.626 6.17578H123.087L127.938 19.5703H128.009C127.985 19.2578 127.954 18.9102 127.915 18.5273C127.876 18.1445 127.841 17.7109 127.81 17.2266C127.778 16.7344 127.751 16.1797 127.728 15.5625C127.704 14.9453 127.692 14.25 127.692 13.4766V6.17578H130.411V26.1914H127.927L123.099 13.1484H123.005C123.028 13.5 123.06 13.8828 123.099 14.2969C123.138 14.7031 123.173 15.1836 123.204 15.7383C123.235 16.293 123.263 16.9414 123.286 17.6836C123.31 18.418 123.321 19.293 123.321 20.3086V26.1914H120.626V6.17578Z" fill="#292C39"/>
<path d="M137.685 6.17578H140.837C141.314 6.17578 141.806 6.19141 142.314 6.22266C142.829 6.24609 143.329 6.32812 143.814 6.46875C144.306 6.60938 144.767 6.82812 145.196 7.125C145.634 7.41406 146.017 7.82422 146.345 8.35547C146.673 8.87891 146.931 9.54297 147.118 10.3477C147.314 11.1445 147.411 12.1211 147.411 13.2773V19.0898C147.411 20.2461 147.314 21.2266 147.118 22.0312C146.931 22.8359 146.673 23.5 146.345 24.0234C146.017 24.5469 145.634 24.957 145.196 25.2539C144.767 25.543 144.306 25.7578 143.814 25.8984C143.329 26.0391 142.829 26.125 142.314 26.1562C141.806 26.1797 141.314 26.1914 140.837 26.1914H137.685V6.17578ZM141.493 24.0703C142.04 24.0703 142.489 24 142.841 23.8594C143.2 23.7188 143.482 23.4727 143.685 23.1211C143.896 22.7617 144.04 22.2773 144.118 21.668C144.196 21.0508 144.235 20.2734 144.235 19.3359V13.125C144.235 12.1875 144.196 11.4141 144.118 10.8047C144.04 10.1875 143.896 9.70312 143.685 9.35156C143.482 8.99219 143.2 8.74219 142.841 8.60156C142.489 8.46094 142.04 8.39062 141.493 8.39062H140.72V24.0703H141.493Z" fill="#292C39"/>
<path d="M158.4 26.3672C158.079 26.3672 157.732 26.3398 157.357 26.2852C156.982 26.2383 156.611 26.1328 156.243 25.9688C155.876 25.8047 155.521 25.5742 155.177 25.2773C154.841 24.9727 154.54 24.5742 154.275 24.082C154.017 23.5898 153.81 22.9844 153.654 22.2656C153.497 21.5391 153.419 20.6758 153.419 19.6758V12.5859C153.419 11.5781 153.497 10.7188 153.654 10.0078C153.818 9.28906 154.033 8.6875 154.298 8.20312C154.564 7.71094 154.865 7.32031 155.2 7.03125C155.544 6.74219 155.9 6.52344 156.267 6.375C156.642 6.21875 157.013 6.11719 157.38 6.07031C157.747 6.02344 158.087 6 158.4 6C158.697 6 159.025 6.02344 159.384 6.07031C159.751 6.10938 160.115 6.20312 160.474 6.35156C160.841 6.49219 161.197 6.70703 161.54 6.99609C161.884 7.27734 162.189 7.66406 162.454 8.15625C162.72 8.64062 162.931 9.24609 163.087 9.97266C163.251 10.6914 163.333 11.5625 163.333 12.5859V19.6758C163.333 20.668 163.251 21.5234 163.087 22.2422C162.923 22.9531 162.708 23.5586 162.443 24.0586C162.177 24.5508 161.868 24.9492 161.517 25.2539C161.173 25.5508 160.818 25.7852 160.45 25.957C160.091 26.1211 159.732 26.2305 159.372 26.2852C159.013 26.3398 158.689 26.3672 158.4 26.3672ZM158.4 24.082C158.697 24.082 158.954 24.0312 159.173 23.9297C159.4 23.8281 159.583 23.6523 159.724 23.4023C159.872 23.1523 159.982 22.8242 160.052 22.418C160.13 22.0039 160.169 21.4844 160.169 20.8594V11.7539C160.169 11.1133 160.13 10.5781 160.052 10.1484C159.982 9.71875 159.872 9.375 159.724 9.11719C159.583 8.85156 159.4 8.66406 159.173 8.55469C158.954 8.44531 158.697 8.39062 158.4 8.39062C158.095 8.39062 157.829 8.44531 157.603 8.55469C157.376 8.66406 157.189 8.85156 157.04 9.11719C156.892 9.375 156.779 9.71875 156.7 10.1484C156.63 10.5781 156.595 11.1133 156.595 11.7539V20.8594C156.595 21.4844 156.63 22.0039 156.7 22.418C156.779 22.8242 156.892 23.1523 157.04 23.4023C157.189 23.6523 157.376 23.8281 157.603 23.9297C157.829 24.0312 158.095 24.082 158.4 24.082Z" fill="#292C39"/>
<path d="M0.439338 17.9643C0.158034 18.2456 0 18.6271 0 19.0249V30.475C0 31.3035 0.671574 31.975 1.5 31.975H4.42926C5.25769 31.975 5.92926 31.3035 5.92926 30.475V16.0957C5.92926 14.7593 4.31355 14.0901 3.3686 15.035L0.439338 17.9643Z" fill="#292C39"/>
<path d="M7.62039 10.7832C7.33909 11.0645 7.18105 11.4461 7.18105 11.8439V30.475C7.18105 31.3035 7.85262 31.975 8.68105 31.975H11.6103C12.4387 31.975 13.1103 31.3035 13.1103 30.475V8.91461C13.1103 7.57825 11.4946 6.909 10.5497 7.85395L7.62039 10.7832Z" fill="#292C39"/>
<path d="M15.032 3.37162C14.7507 3.65292 14.5926 4.03445 14.5926 4.43228V30.475C14.5926 31.3035 15.2642 31.975 16.0926 31.975H19.0219C19.8503 31.975 20.5219 31.3035 20.5219 30.475V1.50301C20.5219 0.166649 18.9062 -0.502601 17.9612 0.442348L15.032 3.37162Z" fill="#292C39"/>
</svg>
